<svg xmlns="http://www.w3.org/2000/svg" viewBox="0 0 400 320" fill="none">
  <!-- Crown -->
  <g stroke="#c9a96e" stroke-width="1.8" stroke-linecap="round" stroke-linejoin="round">
    <path d="M120,170 L145,80 L175,130 L200,50 L225,130 L255,80 L280,170"/>
    <line x1="120" y1="170" x2="280" y2="170"/>
    <line x1="160" y1="170" x2="185" y2="120"/>
    <line x1="185" y1="120" x2="200" y2="145"/>
    <line x1="200" y1="145" x2="215" y2="120"/>
    <line x1="215" y1="120" x2="240" y2="170"/>
    <line x1="185" y1="120" x2="215" y2="120"/>
    <line x1="200" y1="50" x2="200" y2="145"/>
    <circle cx="145" cy="77" r="4" fill="#c9a96e"/>
    <circle cx="200" cy="47" r="4.5" fill="#c9a96e"/>
    <circle cx="255" cy="77" r="4" fill="#c9a96e"/>
    <circle cx="160" cy="170" r="2" fill="#c9a96e"/>
    <circle cx="200" cy="170" r="2" fill="#c9a96e"/>
    <circle cx="240" cy="170" r="2" fill="#c9a96e"/>
  </g>
  
  <text x="200" y="210" text-anchor="middle" font-family="'Cormorant Garamond', 'Georgia', serif" font-size="32" font-weight="500" letter-spacing="8" fill="#ffffff">IMPERIUM PIĘKNA</text>
  
  <line x1="110" y1="237" x2="160" y2="237" stroke="#c9a96e" stroke-width="0.8" opacity="0.6"/>
  <line x1="240" y1="237" x2="290" y2="237" stroke="#c9a96e" stroke-width="0.8" opacity="0.6"/>
  <circle cx="105" cy="237" r="1.5" fill="#c9a96e" opacity="0.5"/>
  <circle cx="100" cy="237" r="1.5" fill="#c9a96e" opacity="0.3"/>
  <circle cx="95" cy="237" r="1.5" fill="#c9a96e" opacity="0.15"/>
  <circle cx="295" cy="237" r="1.5" fill="#c9a96e" opacity="0.5"/>
  <circle cx="300" cy="237" r="1.5" fill="#c9a96e" opacity="0.3"/>
  <circle cx="305" cy="237" r="1.5" fill="#c9a96e" opacity="0.15"/>
  
  <text x="200" y="248" text-anchor="middle" font-family="'Dancing Script', 'Brush Script MT', cursive" font-size="42" font-weight="500" fill="#c9a96e">DaDi</text>
  
  <text x="200" y="285" text-anchor="middle" font-family="'Cormorant Garamond', 'Georgia', serif" font-size="16" font-weight="300" letter-spacing="4" fill="rgba(255,255,255,0.6)" font-style="italic">Z nami piękniej</text>
  
  <line x1="170" y1="293" x2="230" y2="293" stroke="#c9a96e" stroke-width="0.6" opacity="0.4"/>
</svg>
