<svg xmlns="http://www.w3.org/2000/svg" viewBox="0 0 500 350" fill="none">
  <!-- Crown -->
  <g stroke="#c9a96e" stroke-width="1.8" stroke-linecap="round" stroke-linejoin="round">
    <path d="M170,175 L195,85 L225,135 L250,55 L275,135 L305,85 L330,175"/>
    <line x1="170" y1="175" x2="330" y2="175"/>
    <line x1="210" y1="175" x2="235" y2="125"/>
    <line x1="235" y1="125" x2="250" y2="150"/>
    <line x1="250" y1="150" x2="265" y2="125"/>
    <line x1="265" y1="125" x2="290" y2="175"/>
    <line x1="235" y1="125" x2="265" y2="125"/>
    <line x1="250" y1="55" x2="250" y2="150"/>
    <circle cx="195" cy="82" r="4" fill="#c9a96e"/>
    <circle cx="250" cy="52" r="4.5" fill="#c9a96e"/>
    <circle cx="305" cy="82" r="4" fill="#c9a96e"/>
    <circle cx="210" cy="175" r="2" fill="#c9a96e"/>
    <circle cx="250" cy="175" r="2" fill="#c9a96e"/>
    <circle cx="290" cy="175" r="2" fill="#c9a96e"/>
  </g>
  
  <!-- IMPERIUM PIĘKNA -->
  <text x="250" y="215" text-anchor="middle" font-family="'Cormorant Garamond', 'Georgia', serif" font-size="30" font-weight="500" letter-spacing="6" fill="#ffffff">IMPERIUM PIĘKNA</text>
  
  <!-- Decorative lines around DaDi -->
  <line x1="140" y1="240" x2="195" y2="240" stroke="#c9a96e" stroke-width="0.8" opacity="0.6"/>
  <line x1="305" y1="240" x2="360" y2="240" stroke="#c9a96e" stroke-width="0.8" opacity="0.6"/>
  <circle cx="135" cy="240" r="1.5" fill="#c9a96e" opacity="0.5"/>
  <circle cx="130" cy="240" r="1.5" fill="#c9a96e" opacity="0.3"/>
  <circle cx="125" cy="240" r="1.5" fill="#c9a96e" opacity="0.15"/>
  <circle cx="365" cy="240" r="1.5" fill="#c9a96e" opacity="0.5"/>
  <circle cx="370" cy="240" r="1.5" fill="#c9a96e" opacity="0.3"/>
  <circle cx="375" cy="240" r="1.5" fill="#c9a96e" opacity="0.15"/>
  
  <!-- DaDi -->
  <text x="250" y="253" text-anchor="middle" font-family="'Dancing Script', 'Brush Script MT', cursive" font-size="42" font-weight="500" fill="#c9a96e">DaDi</text>
  
  <!-- Z nami piękniej -->
  <text x="250" y="295" text-anchor="middle" font-family="'Cormorant Garamond', 'Georgia', serif" font-size="16" font-weight="300" letter-spacing="4" fill="rgba(255,255,255,0.6)" font-style="italic">Z nami piękniej</text>
  
  <!-- Underline -->
  <line x1="205" y1="303" x2="295" y2="303" stroke="#c9a96e" stroke-width="0.6" opacity="0.4"/>
</svg>
